{"title":"The.Forbidden.Kingdom.2008.SWESUB.DVDRip.XviD.AC3.(5.1).-Zen_Bud","uid":5588258,"size":1471055234,"categoryP":"video","categoryS":"movies","magnet":"?xt=urn:btih:6ed4c5c65c3cbd42f13414963a0cfa0f37a7ffc5&amp;dn=The.Forbidden.Kingdom.2008.SWESUB.DVDRip.XviD.AC3.%285.1%29.-Zen_Bud&amp;tr=udp%3A%2F%2Ftracker.openbittorrent.com%3A80&amp;tr=udp%3A%2F%2Fopen.demonii.com%3A1337&amp;tr=udp%3A%2F%2Ftracker.coppersurfer.tk%3A6969&amp;tr=udp%3A%2F%2Fexodus.desync.com%3A6969","seeders":0,"leechers":0,"uploader":"Zen_Bud","files":-1,"time":1274771291,"description":"General\nComplete name                    : The.Forbidden.Kingdom.avi\nFormat                           : AVI\nFile size                        : 1.37 GiB\nDuration                         : 1h 44mn\nOverall bit rate                 : 1 878 Kbps\n\nVideo\nID                               : 0\nFormat                           : MPEG-4 Visual\nCodec ID/Hint                    : XviD\nDuration                         : 1h 44mn\nBit rate                         : 1 420 Kbps\nWidth                            : 720 pixels\nHeight                           : 496 pixels\nDisplay aspect ratio             :  2.065 !!!!\nChroma subsampling               : 4:2:0\nBit depth                        : 8 bits\nScan type                        : Progressive\nBits/(Pixel*Frame)               : 0.159\nStream size                      : 1.04 GiB (76%)\nWriting library                  : XviD 1.1.2 (UTC 2006-11-01)\n\nAudio\nID                               : 1\nFormat                           : AC-3\nDuration                         : 1h 44mn\nBit rate                         : 448 Kbps\nChannel(s)                       : 6 channels\nChannel positions                : Front: L C R, Side: L R, LFE\nSampling rate                    : 48.0 KHz\nStream size                      : 335 MiB (24%)\n\n\n","torrent":{"xt":"urn:btih:6ed4c5c65c3cbd42f13414963a0cfa0f37a7ffc5","amp;dn":"The.Forbidden.Kingdom.2008.SWESUB.DVDRip.XviD.AC3.%285.1%29.-Zen_Bud","amp;tr":["udp%3A%2F%2Ftracker.openbittorrent.com%3A80","udp%3A%2F%2Fopen.demonii.com%3A1337","udp%3A%2F%2Ftracker.coppersurfer.tk%3A6969","udp%3A%2F%2Fexodus.desync.com%3A6969"],"infoHash":"6ed4c5c65c3cbd42f13414963a0cfa0f37a7ffc5","infoHashBuffer":{"type":"Buffer","data":[110,212,197,198,92,60,189,66,241,52,20,150,58,12,250,15,55,167,255,197]},"announce":[],"urlList":[]}}